# xmcd
#
# Track frame offsets:
#	150
#	10275
#	30737
#	63010
#	77940
#	92160
#	102365
#	119065
#	134030
#	146990
#	161710
#	182542
#
# Disc length: 2693 seconds
#
# Revision: 0
# Processed by: cddbd v1.5PL3 Copyright (c) Steve Scherf et al.
# Submitted via: dBpowerAMP V4.0
#
DISCID=ac0a830c
DTITLE=Big Bands - Best of the Big Bands Vol 1
DYEAR=1900
DGENRE=Big Band
TTITLE0=Let's Dance
TTITLE1=Woodchoppers Ball
TTITLE2=Cherokee
TTITLE3=Begin the Beguine
TTITLE4=St Louis Blues
TTITLE5=Red Bank Boogie
TTITLE6=Sugar Hill Shuffle
TTITLE7=If You Were Only Mine
TTITLE8=You Bit Off More than You Could Chew
TTITLE9=All I Desire
TTITLE10=Caravan
TTITLE11=Oh Johnnie
EXTD=
EXTT0=
EXTT1=
EXTT2=
EXTT3=
EXTT4=
EXTT5=
EXTT6=
EXTT7=
EXTT8=
EXTT9=
EXTT10=
EXTT11=
PLAYORDER=
